<svg version="1.1" xmlns="http://www.w3.org/2000/svg" xmlns:xlink="http://www.w3.org/1999/xlink" width="200.13027" height="42.78133" viewBox="0,0,200.13027,42.78133"><defs><linearGradient x1="112.56315" y1="174.95601" x2="310.40089" y2="174.95601" gradientUnits="userSpaceOnUse" id="color-1"><stop offset="0" stop-color="#1d00ff"/><stop offset="1" stop-color="#ff0000"/></linearGradient></defs><g transform="translate(-111.52062,-153.56698)"><g data-paper-data="{&quot;isPaintingLayer&quot;:true}" fill-rule="nonzero" stroke-linecap="butt" stroke-linejoin="miter" stroke-miterlimit="10" stroke-dasharray="" stroke-dashoffset="0" style="mix-blend-mode: normal"><path d="M113.24061,194.62834c0,0 -0.46998,-0.45284 -0.46998,-2.00508c0,-7.11944 0,-27.47963 0,-32.7711c0,-2.43604 -0.76009,-2.85687 0.6294,-4.24636c1.38949,-1.38949 0.57625,-0.78881 3.46581,-0.78881c6.33106,0 32.48299,0 63.61077,0c50.9468,0 115.22282,0 127.74218,0c1.42309,0 1.94712,0.23499 1.94712,0.23499c0,0 0.23499,0.35453 0.23499,1.38275c0,6.05417 0,27.31727 0,32.99903c0,2.68873 -0.62939,4.3302 -0.62939,4.3302c0,0 -1.22453,1.33437 -3.77638,1.33437c-15.80154,0 -170.98492,0 -191.08355,0c-1.3966,0 -1.67096,-0.46998 -1.67096,-0.46998z" fill="url(#color-1)" stroke="#29ff00" stroke-width="2.5"/><text transform="translate(120.63188,179.74131) scale(0.32385,0.32385)" font-size="40" xml:space="preserve" fill="#000000" fill-rule="nonzero" stroke="none" stroke-width="1" stroke-linecap="butt" stroke-linejoin="miter" stroke-miterlimit="10" stroke-dasharray="" stroke-dashoffset="0" font-family="Sans Serif" font-weight="normal" text-anchor="start" style="mix-blend-mode: normal"><tspan x="0" dy="0">社区维护中，该用户暂时不可见</tspan></text></g></g></svg>